<svg width="723" height="86" viewBox="0 0 723 86" fill="none" xmlns="http://www.w3.org/2000/svg">
<path d="M33.512 85.624C23.4587 85.624 15.4933 82.84 9.61599 77.272C3.73865 71.6267 0.799988 63.584 0.799988 53.144V33.656C0.799988 23.216 3.73865 15.212 9.61599 9.644C15.4933 3.99866 23.4587 1.17599 33.512 1.17599C43.488 1.17599 51.1827 3.92133 56.596 9.412C62.0867 14.8253 64.832 22.288 64.832 31.8V32.496H49.752V31.336C49.752 26.5413 48.3987 22.5973 45.692 19.504C43.0627 16.4107 39.0027 14.864 33.512 14.864C28.0987 14.864 23.8453 16.5267 20.752 19.852C17.6587 23.1773 16.112 27.7013 16.112 33.424V53.376C16.112 59.0213 17.6587 63.5453 20.752 66.948C23.8453 70.2733 28.0987 71.936 33.512 71.936C39.0027 71.936 43.0627 70.3893 45.692 67.296C48.3987 64.1253 49.752 60.1813 49.752 55.464V53.376H64.832V55C64.832 64.512 62.0867 72.0133 56.596 77.504C51.1827 82.9173 43.488 85.624 33.512 85.624Z" fill="#9A97DA"/>
<path d="M122.548 85.624C116.826 85.624 111.683 84.464 107.12 82.144C102.558 79.824 98.9617 76.46 96.3323 72.052C93.703 67.644 92.3883 62.3467 92.3883 56.16V54.304C92.3883 48.1173 93.703 42.82 96.3323 38.412C98.9617 34.004 102.558 30.64 107.12 28.32C111.683 26 116.826 24.84 122.548 24.84C128.271 24.84 133.414 26 137.976 28.32C142.539 30.64 146.135 34.004 148.764 38.412C151.394 42.82 152.708 48.1173 152.708 54.304V56.16C152.708 62.3467 151.394 67.644 148.764 72.052C146.135 76.46 142.539 79.824 137.976 82.144C133.414 84.464 128.271 85.624 122.548 85.624ZM122.548 72.632C127.034 72.632 130.746 71.2013 133.684 68.34C136.623 65.4013 138.092 61.2253 138.092 55.812V54.652C138.092 49.2387 136.623 45.1013 133.684 42.24C130.823 39.3013 127.111 37.832 122.548 37.832C118.063 37.832 114.351 39.3013 111.412 42.24C108.474 45.1013 107.004 49.2387 107.004 54.652V55.812C107.004 61.2253 108.474 65.4013 111.412 68.34C114.351 71.2013 118.063 72.632 122.548 72.632Z" fill="#9A97DA"/>
<path d="M210.976 85.624C205.253 85.624 200.11 84.464 195.548 82.144C190.985 79.824 187.389 76.46 184.76 72.052C182.13 67.644 180.816 62.3467 180.816 56.16V54.304C180.816 48.1173 182.13 42.82 184.76 38.412C187.389 34.004 190.985 30.64 195.548 28.32C200.11 26 205.253 24.84 210.976 24.84C216.698 24.84 221.841 26 226.404 28.32C230.966 30.64 234.562 34.004 237.192 38.412C239.821 42.82 241.136 48.1173 241.136 54.304V56.16C241.136 62.3467 239.821 67.644 237.192 72.052C234.562 76.46 230.966 79.824 226.404 82.144C221.841 84.464 216.698 85.624 210.976 85.624ZM210.976 72.632C215.461 72.632 219.173 71.2013 222.112 68.34C225.05 65.4013 226.52 61.2253 226.52 55.812V54.652C226.52 49.2387 225.05 45.1013 222.112 42.24C219.25 39.3013 215.538 37.832 210.976 37.832C206.49 37.832 202.778 39.3013 199.84 42.24C196.901 45.1013 195.432 49.2387 195.432 54.652V55.812C195.432 61.2253 196.901 65.4013 199.84 68.34C202.778 71.2013 206.49 72.632 210.976 72.632Z" fill="#9A97DA"/>
<path d="M272.027 84V2.79999H286.643V47.692H288.731L307.755 26.464H326.779L300.215 54.304L327.707 84H308.915L288.731 61.148H286.643V84H272.027Z" fill="#9A97DA"/>
<path d="M389.472 85.624C384.29 85.624 380.308 84.7347 377.524 82.956C374.74 81.1773 372.69 79.2053 371.376 77.04H369.288V84H354.904V2.79999H369.52V33.076H371.608C372.458 31.684 373.58 30.3693 374.972 29.132C376.441 27.8947 378.336 26.8893 380.656 26.116C383.053 25.2653 385.992 24.84 389.472 24.84C394.112 24.84 398.404 26 402.348 28.32C406.292 30.5627 409.462 33.888 411.86 38.296C414.257 42.704 415.456 48.04 415.456 54.304V56.16C415.456 62.424 414.257 67.76 411.86 72.168C409.462 76.576 406.292 79.94 402.348 82.26C398.404 84.5027 394.112 85.624 389.472 85.624ZM385.064 72.864C389.549 72.864 393.3 71.4333 396.316 68.572C399.332 65.6333 400.84 61.38 400.84 55.812V54.652C400.84 49.084 399.332 44.8693 396.316 42.008C393.377 39.0693 389.626 37.6 385.064 37.6C380.578 37.6 376.828 39.0693 373.812 42.008C370.796 44.8693 369.288 49.084 369.288 54.652V55.812C369.288 61.38 370.796 65.6333 373.812 68.572C376.828 71.4333 380.578 72.864 385.064 72.864Z" fill="#9A97DA"/>
<path d="M473.652 85.624C467.93 85.624 462.787 84.464 458.224 82.144C453.662 79.824 450.066 76.46 447.436 72.052C444.807 67.644 443.492 62.3467 443.492 56.16V54.304C443.492 48.1173 444.807 42.82 447.436 38.412C450.066 34.004 453.662 30.64 458.224 28.32C462.787 26 467.93 24.84 473.652 24.84C479.375 24.84 484.518 26 489.08 28.32C493.643 30.64 497.239 34.004 499.868 38.412C502.498 42.82 503.812 48.1173 503.812 54.304V56.16C503.812 62.3467 502.498 67.644 499.868 72.052C497.239 76.46 493.643 79.824 489.08 82.144C484.518 84.464 479.375 85.624 473.652 85.624ZM473.652 72.632C478.138 72.632 481.85 71.2013 484.788 68.34C487.727 65.4013 489.196 61.2253 489.196 55.812V54.652C489.196 49.2387 487.727 45.1013 484.788 42.24C481.927 39.3013 478.215 37.832 473.652 37.832C469.167 37.832 465.455 39.3013 462.516 42.24C459.578 45.1013 458.108 49.2387 458.108 54.652V55.812C458.108 61.2253 459.578 65.4013 462.516 68.34C465.455 71.2013 469.167 72.632 473.652 72.632Z" fill="#9A97DA"/>
<path d="M562.08 85.624C556.357 85.624 551.214 84.464 546.652 82.144C542.089 79.824 538.493 76.46 535.864 72.052C533.234 67.644 531.92 62.3467 531.92 56.16V54.304C531.92 48.1173 533.234 42.82 535.864 38.412C538.493 34.004 542.089 30.64 546.652 28.32C551.214 26 556.357 24.84 562.08 24.84C567.802 24.84 572.945 26 577.508 28.32C582.07 30.64 585.666 34.004 588.296 38.412C590.925 42.82 592.24 48.1173 592.24 54.304V56.16C592.24 62.3467 590.925 67.644 588.296 72.052C585.666 76.46 582.07 79.824 577.508 82.144C572.945 84.464 567.802 85.624 562.08 85.624ZM562.08 72.632C566.565 72.632 570.277 71.2013 573.216 68.34C576.154 65.4013 577.624 61.2253 577.624 55.812V54.652C577.624 49.2387 576.154 45.1013 573.216 42.24C570.354 39.3013 566.642 37.832 562.08 37.832C557.594 37.832 553.882 39.3013 550.944 42.24C548.005 45.1013 546.536 49.2387 546.536 54.652V55.812C546.536 61.2253 548.005 65.4013 550.944 68.34C553.882 71.2013 557.594 72.632 562.08 72.632Z" fill="#9A97DA"/>
<path d="M623.131 84V2.79999H637.747V47.692H639.835L658.859 26.464H677.883L651.319 54.304L678.811 84H660.019L639.835 61.148H637.747V84H623.131Z" fill="#9A97DA"/>
<path d="M706.008 84V26.464H720.623V84H706.008ZM713.315 19.736C710.686 19.736 708.444 18.8853 706.588 17.184C704.809 15.4827 703.919 13.24 703.919 10.456C703.919 7.672 704.809 5.42933 706.588 3.728C708.444 2.02666 710.686 1.17599 713.315 1.17599C716.022 1.17599 718.265 2.02666 720.044 3.728C721.822 5.42933 722.711 7.672 722.711 10.456C722.711 13.24 721.822 15.4827 720.044 17.184C718.265 18.8853 716.022 19.736 713.315 19.736Z" fill="#9A97DA"/>
<path d="M723 10C723 15.5228 718.523 20 713 20C707.477 20 703 15.5228 703 10C703 4.47715 707.477 0 713 0C718.523 0 723 4.47715 723 10Z" fill="#A4B570"/>
</svg>
