<svg width="1592" height="37" viewBox="0 0 1592 37" fill="none" xmlns="http://www.w3.org/2000/svg">
<path fill-rule="evenodd" clip-rule="evenodd" d="M1591.67 37H0.325485C13.363 14.8585 37.4463 0 65 0C86.726 0 106.294 9.23789 119.991 24H122.009C135.706 9.23789 155.274 0 177 0C198.726 0 218.294 9.23789 231.991 24H235.009C248.706 9.23789 268.274 0 290 0C311.726 0 331.294 9.23789 344.991 24H347.009C360.706 9.23789 380.274 0 402 0C423.726 0 443.294 9.23789 456.991 24H460.009C473.706 9.23789 493.274 0 515 0C536.726 0 556.294 9.23789 569.991 24H572.009C585.706 9.23789 605.274 0 627 0C648.726 0 668.294 9.23789 681.991 24H685.009C698.706 9.23789 718.274 0 740 0C761.726 0 781.294 9.23789 794.991 24H797.009C810.706 9.23789 830.274 0 852 0C873.726 0 893.294 9.23789 906.991 24H910.009C923.706 9.23789 943.274 0 965 0C986.726 0 1006.29 9.23789 1019.99 24H1022.01C1035.71 9.23789 1055.27 0 1077 0C1098.73 0 1118.29 9.23789 1131.99 24H1135.01C1148.71 9.23789 1168.27 0 1190 0C1211.73 0 1231.29 9.23789 1244.99 24H1247.01C1260.71 9.23789 1280.27 0 1302 0C1323.73 0 1343.29 9.23789 1356.99 24H1360.01C1373.71 9.23789 1393.27 0 1415 0C1436.73 0 1456.29 9.23789 1469.99 24H1472.01C1485.71 9.23789 1505.27 0 1527 0C1554.55 0 1578.64 14.8585 1591.67 37Z" fill="#A4B570"/>
</svg>
